<?xml version="1.0" encoding="UTF-8" standalone="no"?>
<!-- Created with Inkscape (http://www.inkscape.org/) -->

<svg
   xmlns:dc="http://purl.org/dc/elements/1.1/"
   xmlns:cc="http://creativecommons.org/ns#"
   xmlns:rdf="http://www.w3.org/1999/02/22-rdf-syntax-ns#"
   xmlns:svg="http://www.w3.org/2000/svg"
   xmlns="http://www.w3.org/2000/svg"
   xmlns:sodipodi="http://sodipodi.sourceforge.net/DTD/sodipodi-0.dtd"
   xmlns:inkscape="http://www.inkscape.org/namespaces/inkscape"
   width="400"
   height="400"
   viewBox="0 0 400 400.00001"
   id="svg4502"
   version="1.1"
   inkscape:version="0.91 r13725"
   sodipodi:docname="shitadvisor.svg">
  <defs
     id="defs4504" />
  <sodipodi:namedview
     id="base"
     pagecolor="#ffffff"
     bordercolor="#666666"
     borderopacity="1.0"
     inkscape:pageopacity="0.0"
     inkscape:pageshadow="2"
     inkscape:zoom="0.35355339"
     inkscape:cx="-87.322239"
     inkscape:cy="-465.74191"
     inkscape:document-units="px"
     inkscape:current-layer="layer1"
     showgrid="false"
     units="px"
     inkscape:window-width="1536"
     inkscape:window-height="801"
     inkscape:window-x="-8"
     inkscape:window-y="-8"
     inkscape:window-maximized="1" />
  <metadata
     id="metadata4507">
    <rdf:RDF>
      <cc:Work
         rdf:about="">
        <dc:format>image/svg+xml</dc:format>
        <dc:type
           rdf:resource="http://purl.org/dc/dcmitype/StillImage" />
        <dc:title></dc:title>
      </cc:Work>
    </rdf:RDF>
  </metadata>
  <g
     inkscape:label="Ebene 1"
     inkscape:groupmode="layer"
     id="layer1"
     transform="translate(0,-652.3622)">
    <circle
       style="opacity:0.98000004;fill:#f5d4ba;fill-opacity:1;stroke:#000000;stroke-width:9.75609779;stroke-miterlimit:4;stroke-dasharray:none;stroke-opacity:1"
       id="path5183"
       cx="200"
       cy="852.36218"
       r="195.12195" />
    <g
       id="g5166"
       transform="translate(-44.156851,354.8465)">
      <path
         inkscape:connector-curvature="0"
         id="path180"
         style="fill:#eab690;fill-opacity:1;fill-rule:nonzero;stroke:none"
         d="m 218.57655,612.35277 c -23.62125,0 -56.2425,-2.7525 -76.89125,-15.92375 -14.17125,-9.04 -8.1125,-15.4125 2.37375,-18.7 15.66,11.66375 44.40125,24.6825 81.3975,26.68625 3.53625,0.19125 7.23,0.275 10.95,0.275 15.57875,0 31.6525,-1.4625 38.75625,-2.58375 l 0,0 c 1.32125,0 18.87125,-2.27375 25.46375,-5.0025 -2.9125,0.15625 -5.745,0.22875 -8.51375,0.22875 -1.215,0 -2.4175,-0.0138 -3.60875,-0.0412 1.835,-0.355 3.66375,-0.72625 5.49125,-1.1125 18.22375,-3.84375 39.1275,-9.13875 53.70875,-22.355 24.94125,13.0625 -20.03875,31.43 -35.85625,33.89375 -31.355,4.885 -61.55,4.6025 -92.965,4.635 -0.1025,0 -0.20375,0 -0.30625,0 m 39.63,-26.835 c -5.25875,0 -9.305,-2.7125 -12.04,-6.7175 -1.76125,-2.58375 -2.9775,-5.71125 -3.6175,-8.995 6.83375,-0.42125 13.93625,-1.025 21.14375,-1.6275 3.74375,-0.31375 7.51375,-0.62625 11.2925,-0.915 -0.225,3.6575 -1.26625,7.18375 -3.02875,10.1475 -2.725,4.56875 -7.16125,7.81 -12.98125,8.0875 -0.25875,0.0137 -0.515,0.02 -0.76875,0.02" />
      <path
         inkscape:connector-curvature="0"
         id="path182"
         style="fill:#f694a8;fill-opacity:1;fill-rule:nonzero;stroke:none"
         d="m 249.3903,578.42902 c 5.99125,-3.42625 12.78125,-3.41 19.185,-1.20375 -2.225,2.96375 -5.49125,4.955 -9.785,5.18625 -4.165,0.21625 -7.2175,-1.38875 -9.4,-3.9825" />
      <path
         inkscape:connector-curvature="0"
         id="path184"
         style="fill:#212a32;fill-opacity:1;fill-rule:nonzero;stroke:none"
         d="m 293.18155,537.80652 c -1.84,-4.12125 -5.505,-1.065 -6.36125,2.19125 -0.61375,2.315 -1.05625,9.01375 0.84125,12.11625 0.55625,0.91 1.91125,1.945 2.91,2.0375 4.39375,0.41625 3.88,-13.52125 2.61,-16.345" />
      <path
         inkscape:connector-curvature="0"
         id="path186"
         style="fill:#212a32;fill-opacity:1;fill-rule:nonzero;stroke:none"
         d="m 244.45405,563.16527 c 0.2575,4.5525 1.25625,9.43 3.43875,13.15 5.3625,-5.52625 15.77625,-4.12125 22.2375,-1.65125 1.755,-3.59625 2.325,-8.02625 1.68375,-12.3325 -8.74375,1.5125 -18.58625,2.71625 -27.36,0.83375" />
      <path
         inkscape:connector-curvature="0"
         id="path188"
         style="fill:#212a32;fill-opacity:1;fill-rule:nonzero;stroke:none"
         d="m 214.6278,544.67402 c -0.0863,2.06875 0.285,4.47625 0.685,6.51375 0.39875,2.0375 0.6125,4.5225 2.51,5.27875 1.2975,0.525 2.81,-0.4475 2.995,-2.51625 0.2,-0.77125 0.31375,-1.55875 0.3575,-2.34625 0.11375,-1.08 0.1425,-2.175 0.19875,-3.27125 0.14375,-2.5775 0.77125,-7.94875 -1.32625,-9.8475 -3.26625,-2.97875 -5.30625,3.72 -5.42,6.18875" />
      <path
         inkscape:connector-curvature="0"
         id="path190"
         style="fill:#614230;fill-opacity:1;fill-rule:nonzero;stroke:none"
         d="m 292.0978,556.43527 c -6.005,3.33375 -8.07375,-6.71375 -8.145,-11.08125 -0.0563,-3.25625 0.41375,-6.8525 2.06875,-9.64625 1.07,-1.79125 2.62375,-2.9175 4.2225,-3.0875 1.61125,-0.2 3.26625,0.57125 4.4925,2.5775 1.29875,2.08375 1.74,4.84625 1.8975,7.31625 0.3,4.46 -0.31375,11.575 -4.53625,13.92125 m -20.14125,20.975 c -2.725,4.56875 -7.16125,7.81 -12.98125,8.0875 -5.63375,0.27875 -9.94125,-2.5 -12.80875,-6.6975 -3.21,-4.7075 -4.6075,-11.22125 -4.00875,-17.19375 0.17125,-1.6825 19.65625,-1.1575 22.23875,-1.46625 1.5975,-0.17 9.37125,-2.5775 9.97,-0.0625 1.44125,6.02 0.5,12.44 -2.41,17.3325 m -51.16625,-18.4275 c -6.87625,4.05875 -9.15875,-9.4775 -8.94375,-14.03 0.17125,-3.33375 1.055,-7.48625 3.9225,-9.35375 4.55,-2.9475 8.30125,2.84 8.55875,7.22375 0.2425,4.26 0.68375,13.65875 -3.5375,16.16 m 136.14,-44.76 c -7.4325,-10.89625 -18.30125,-17.34875 -29.97,-21.4075 -8.73,14.97125 -31.4675,22.8275 -44.86125,26.7475 -23.69375,6.96125 -49.1275,7.2075 -72.86375,0.30875 -12.895,-3.75 -30.36875,-10.4025 -39.7975,-22.71875 -5.635,2.13 -14.7925,5.54125 -19.04375,9.22875 -1.28375,1.1125 -2.51,2.3 -3.665,3.56625 -4.6075,5.03125 -8.18875,11.14375 -10.98375,17.5175 -3.66625,8.365 -6.705,17.8425 -5.30625,27.18 2.63875,17.65625 22.7375,28.84625 36.53125,34.835 15.19125,6.59 31.86625,9.83125 47.8425,11.66875 26.39,3.01 53.1925,0.525 79.1825,-4.97 24.8775,-5.2475 54.7475,-13.19625 66.715,-40.315 6.09,-13.7825 4.6075,-29.355 -3.78,-41.64125" />
      <path
         inkscape:connector-curvature="0"
         id="path192"
         style="fill:#614230;fill-opacity:1;fill-rule:nonzero;stroke:none"
         d="m 199.4503,440.92527 c 0.35625,0.58625 0.75625,1.1425 1.18375,1.65125 3.595,4.445 9.115,6.4675 14.36375,7.455 8.345,1.57375 17.24625,1.6825 25.63375,0.47875 9.38625,-1.35875 18.8575,-4.84625 25.86125,-12.00875 2.2975,-2.345 3.95125,-4.76875 5.03625,-7.23875 3.70875,-8.4725 0.655,-17.3625 -6.505,-24.92625 -6.07625,-6.43625 -13.295,-11.205 -21.1975,-14.53875 -3.965,-1.6825 -8.05875,-2.99375 -12.19625,-4.075 -2.0825,-0.525 -4.165,-1.0025 -6.27625,-1.42 -3.83625,-0.77125 -10.57,-1.8675 -12.0525,3.6425 -0.6,2.2075 0.77,3.48875 1.79625,5.155 0.41375,0.66375 0.81375,1.3275 1.2275,2.0075 0.8275,1.66625 1.655,2.7775 2.125,4.63 0.5275,2.16 0.45625,4.26 -0.27125,6.3275 -2.29625,6.575 -9.71375,8.9675 -14.35,13.08875 -5.39125,4.785 -8.68625,12.14625 -4.6925,19.23125 0.1,0.185 0.2,0.355 0.31375,0.54" />
      <path
         inkscape:connector-curvature="0"
         id="path194"
         style="fill:#614230;fill-opacity:1;fill-rule:nonzero;stroke:none"
         d="m 172.76155,495.85652 c 1.66875,2.0825 3.58,4.0275 5.705,5.7875 19.6425,16.29875 48.79875,21.13 72.84875,19.94125 13.21,-0.66375 26.30375,-3.33375 38.77125,-8.04125 11.16875,-4.21375 24.72,-9.87875 32.4375,-19.9875 0.45625,-0.58625 0.87,-1.18875 1.255,-1.79125 0.55625,-0.86375 1.04125,-1.74375 1.455,-2.62375 6.86125,-14.4925 -4.55,-30.05375 -15.29125,-39.29875 -10.5275,-9.075 -23.1225,-14.635 -36.44625,-15.885 l -0.0138,0 c -3.02375,6.25 -8.45875,10.9775 -15.14875,14.465 -14.3925,7.51625 -36.28875,9.085 -51.2525,2.66375 -3.5375,-1.5125 -6.9325,-4.07 -9.34375,-7.34125 -10.39875,4.105 -20.51125,9.02375 -27.245,19.1175 -7.26,10.88125 -5.39125,22.53875 1.27,31.7075 0.3275,0.43125 0.65625,0.85375 0.99875,1.28625" />
      <path
         inkscape:connector-curvature="0"
         id="path196"
         style="fill:#614230;fill-opacity:1;fill-rule:nonzero;stroke:none"
         d="m 138.48405,454.15277 c 2.2675,-1.82125 1.4125,-5.43375 -0.885,-6.9925 -0.92625,-0.6325 -2.63875,-1.3575 -3.78,-1.01875 -2.71,0.81875 -0.0425,2.68625 1.14125,3.24125 1.37,0.63375 0.3425,2.87125 -1.0275,2.25375 -2.11,-0.95625 -4.82125,-3.1025 -3.5225,-5.98875 1.0125,-2.26875 3.90875,-2.33 5.8625,-1.82125 0.9275,0.2475 1.81125,0.66375 2.625,1.20375 -0.1,-0.13875 -0.17125,-0.2925 -0.27125,-0.43125 -0.8275,-1.1575 -2.1975,-1.8525 -2.9675,-2.97875 -0.89875,-0.12375 -1.6825,-1.26625 -0.94125,-2.26875 3.52375,-4.77 6.59,-11.175 6.63375,-17.45625 0.49875,-2.485 -0.5575,-4.4925 -2.14,-3.95125 -1.3125,0.52375 -3.1675,6.79 -3.5375,7.94875 -1.01375,3.27125 -1.64125,6.65125 -2.3825,10.00125 l -0.11375,0.2625 c -0.32875,1.3725 -2.45375,0.97125 -2.39625,-0.64875 0.1275,-3.08625 -0.1,-6.035 -0.81375,-9.02875 -0.17125,-0.71 -0.35625,-2.7625 -0.95625,-3.24125 -3.26625,-2.59375 -3.20875,2.4075 -3.15125,3.53375 0.2425,4.97 2.4525,8.9375 4.2925,13.305 0.31375,0.74 -0.11375,1.265 -0.67,1.38875 l -0.11375,0.185 c -1.86875,2.1925 -4.6075,3.6275 -5.60625,6.60625 -1.155,3.44125 1.2125,6.17375 3.965,7.3625 3.3675,1.45 7.80375,0.91 10.75625,-1.46625" />
      <path
         inkscape:connector-curvature="0"
         id="path206"
         style="fill:#492e25;fill-opacity:1;fill-rule:nonzero;stroke:none"
         d="m 238.11155,602.44152 c -7.78,0 -15.55875,-0.41 -23.29875,-1.2925 -15.97625,-1.8375 -32.65125,-5.07875 -47.8425,-11.66875 -6.55625,-2.84625 -14.53625,-6.86625 -21.38875,-12.19875 -7.56625,-5.88625 -13.75875,-13.37125 -15.1425,-22.63625 -1.39875,-9.3375 1.64,-18.815 5.30625,-27.18 2.795,-6.37375 6.37625,-12.48625 10.98375,-17.5175 1.155,-1.26625 2.38125,-2.45375 3.665,-3.56625 4.25125,-3.6875 13.40875,-7.09875 19.04375,-9.22875 9.42875,12.31625 26.9025,18.96875 39.7975,22.71875 11.63125,3.38125 23.66875,5.045 35.70875,5.045 12.53375,0 25.07125,-1.80375 37.155,-5.35375 10.44375,-3.05625 26.56875,-8.50625 37.30375,-17.8575 -12.41,17.47 -46.14125,26.44125 -86.79125,26.44125 -17.4475,0 -36.1775,-1.655 -55.0275,-5.00125 -0.505,-0.09 -1.0025,-0.13375 -1.495,-0.13375 -17.52375,0 -26.42625,55.31875 54.51125,66.8175 21.11375,3 38.0525,7.0175 57.90375,7.4625 -16.61,3.22 -33.51125,5.15 -50.3925,5.15" />
      <path
         inkscape:connector-curvature="0"
         id="path212"
         style="fill:#492e25;fill-opacity:1;fill-rule:nonzero;stroke:none"
         d="m 229.1703,451.32402 c -4.77375,0 -9.5575,-0.4225 -14.1725,-1.2925 -5.24875,-0.9875 -10.76875,-3.01 -14.36375,-7.455 -0.4275,-0.50875 -0.8275,-1.065 -1.18375,-1.65125 -0.11375,-0.185 -0.21375,-0.355 -0.31375,-0.54 -3.99375,-7.085 -0.69875,-14.44625 4.6925,-19.23125 4.63625,-4.12125 12.05375,-6.51375 14.35,-13.08875 0.45125,-1.2825 0.65,-2.5775 0.61,-3.8925 3.08625,5.91125 5.02375,11.735 8.955,17.735 2.3425,3.5775 5.115,6.8425 7.5825,10.33 2.11875,2.99625 5.18125,5.82375 4.95625,9.27 -0.0612,0.94875 -0.37125,1.94375 -1.01875,3.00125 -1.72625,2.8225 -4.83125,5.21 -8.30375,6.795 -0.59625,0.0138 -1.1925,0.02 -1.79,0.02" />
      <path
         inkscape:connector-curvature="0"
         id="path216"
         style="fill:#271a19;fill-opacity:1;fill-rule:nonzero;stroke:none"
         d="m 360.7103,555.86402 c -11.96875,27.11875 -41.8375,35.0675 -66.715,40.315 -25.99,5.495 -52.7925,7.98 -79.1825,4.97 -15.97625,-1.8375 -32.65125,-5.07875 -47.8425,-11.66875 -13.79375,-5.98875 -33.8925,-17.17875 -36.53125,-34.835 -1.39875,-9.3375 1.64,-18.815 5.30625,-27.18 2.795,-6.37375 6.37625,-12.48625 10.98375,-17.5175 1.155,-1.26625 2.38125,-2.455 3.665,-3.56625 4.25125,-3.68875 13.40875,-7.09875 19.04375,-9.22875 9.42875,12.31625 26.9025,18.96875 39.7975,22.71875 23.73625,6.89875 49.17,6.6525 72.86375,-0.30875 13.39375,-3.92 36.13125,-11.77625 44.86125,-26.7475 11.66875,4.05875 22.5375,10.51125 29.97,21.4075 8.3875,12.28625 9.87125,27.85875 3.78,41.64125 z m -190.2175,-93.0225 c 6.73375,-10.09375 16.84625,-15.0325 27.245,-19.1375 2.41125,3.27125 5.80625,5.7875 9.34375,7.3 14.96375,6.42 36.86,4.935 51.2525,-2.58125 6.69,-3.4875 12.125,-8.215 15.14875,-14.465 l 0.0138,0 c 13.32375,1.25 25.91875,6.81 36.44625,15.885 10.74125,9.245 22.1525,24.89 15.29125,39.3825 -0.41375,0.88 -0.89875,1.7175 -1.455,2.5825 -0.385,0.60125 -0.79875,1.1825 -1.255,1.76875 -7.7175,10.11 -21.26875,15.76375 -32.4375,19.9775 -12.4675,4.7075 -25.56125,7.3725 -38.77125,8.03625 -24.05,1.18875 -53.20625,-3.645 -72.84875,-19.94375 -2.125,-1.76 -4.03625,-3.70625 -5.705,-5.78875 -0.3425,-0.4325 -0.67125,-0.865 -0.99875,-1.2975 -6.66125,-9.16875 -8.53,-20.8375 -1.27,-31.71875 z m 33.33625,-41.6875 c 4.63625,-4.12125 12.05375,-6.51375 14.35,-13.08875 0.7275,-2.0675 0.79875,-4.1675 0.27125,-6.3275 -0.47,-1.8525 -1.2975,-2.96375 -2.125,-4.63 -0.41375,-0.68 -0.81375,-1.34375 -1.2275,-2.0075 -1.02625,-1.66625 -2.39625,-2.9475 -1.79625,-5.155 1.4825,-5.51 8.21625,-4.41375 12.0525,-3.6425 2.11125,0.4175 4.19375,0.895 6.27625,1.42 4.1375,1.08125 8.23125,2.3925 12.19625,4.075 7.9025,3.33375 15.12125,8.1025 21.1975,14.53875 7.16125,7.56375 10.21375,16.45375 6.505,24.92625 -1.085,2.47 -2.73875,4.89375 -5.03625,7.23875 -7.00375,7.1625 -16.475,10.65 -25.86125,12.00875 -8.3875,1.20375 -17.28875,1.095 -25.63375,-0.47875 -5.24875,-0.9875 -10.76875,-3.01 -14.36375,-7.455 -0.4275,-0.50875 -0.8275,-1.065 -1.18375,-1.65125 -0.11375,-0.185 -0.21375,-0.355 -0.31375,-0.54 -3.99375,-7.085 -0.69875,-14.44625 4.6925,-19.23125 z m -76.10125,34.465 c -2.7525,-1.18875 -5.12,-3.92125 -3.965,-7.3625 0.99875,-2.97875 3.7375,-4.41375 5.60625,-6.60625 l 0.11375,-0.185 c 0.55625,-0.12375 0.98375,-0.64875 0.67,-1.38875 -1.84,-4.3675 -4.05,-8.335 -4.2925,-13.305 -0.0575,-1.12625 -0.115,-6.1275 3.15125,-3.53375 0.6,0.47875 0.785,2.53125 0.95625,3.24125 0.71375,2.99375 0.94125,5.9425 0.81375,9.02875 -0.0575,1.62 2.0675,2.02125 2.39625,0.64875 l 0.11375,-0.2625 c 0.74125,-3.35 1.36875,-6.73 2.3825,-10.00125 0.37,-1.15875 2.225,-7.425 3.5375,-7.94875 1.5825,-0.54125 2.63875,1.46625 2.14,3.95125 -0.0437,6.28125 -3.11,12.68625 -6.63375,17.45625 -0.74125,1.0025 0.0425,2.145 0.94125,2.26875 0.77,1.12625 2.14,1.82125 2.9675,2.97875 0.1,0.13875 0.17125,0.2925 0.27125,0.43125 -0.81375,-0.54 -1.6975,-0.95625 -2.625,-1.20375 -1.95375,-0.50875 -4.85,-0.4475 -5.8625,1.82125 -1.29875,2.88625 1.4125,5.0325 3.5225,5.98875 1.37,0.6175 2.3975,-1.62 1.0275,-2.25375 -1.18375,-0.555 -3.85125,-2.4225 -1.14125,-3.24125 1.14125,-0.33875 2.85375,0.38625 3.78,1.01875 2.2975,1.55875 3.1525,5.17125 0.885,6.9925 -2.9525,2.37625 -7.38875,2.91625 -10.75625,1.46625 z m 233.61,59.715 c -7.4175,-12.93375 -19.785,-20.91375 -32.98,-25.25 1.4125,-3.22625 2.1975,-6.745 2.15375,-10.58875 -0.185,-13.9675 -10.72625,-25.97625 -20.455,-33.80125 -10.37,-8.33375 -22.52375,-13.35 -35.30375,-15.0475 2.53875,-7.1775 1.61125,-15.28 -4.58,-23.06 -12.58125,-15.835 -33.065,-25.095 -52.33625,-24.86375 -3.60875,-0.325 -6.2475,1.12625 -7.37375,4.9075 -0.81375,2.7625 -0.12875,4.6925 0.9975,7.1 1.98375,4.21375 5.42125,9.6 2.81125,14.15375 -1.67,2.9475 -5.25,4.7075 -7.88875,6.46625 -5.9625,3.95125 -12.03875,9.8475 -12.11125,18.0425 -0.0275,2.87125 0.7,5.52625 1.94,7.8725 -16.98875,5.6325 -35.70375,20.0175 -33.23625,40.29875 0.57125,4.7075 2.14,8.89 4.4225,12.61 -4.55,0.60125 -9.67125,3.68875 -12.8375,5.47875 -3.31,1.8825 -6.305,4.3375 -9.00125,7.16125 -11.255,-13.56625 -17.13125,-29.18625 -15.02,-47.66125 6.16125,0.72625 13.06625,-1.82125 11.525,-9.38375 0.32875,-0.17 0.585,-0.50875 0.57125,-1.01875 -0.0288,-2.11375 -0.7425,-4.12125 -1.86875,-5.85 -0.7425,-1.12625 -1.76875,-2.53125 -3.01,-3.19375 2.61,-3.85875 4.52125,-8.135 5.535,-12.82625 0.6275,-2.9175 1.71125,-7.87125 -0.81375,-10.2025 -4.86375,-4.46 -8.07375,3.195 -9.77125,10.18625 -0.8125,-4.96875 -2.71,-9.46125 -6.975,-6.83625 -5.80625,3.565 -1.5975,15.35625 1.91125,20.14125 -5.84875,2.80875 -9.91375,11.1275 -4.03625,16.2675 1.08375,0.94125 2.5525,1.6825 4.2075,2.16125 -2.4825,17.90375 3.0525,38.1375 16.01875,50.115 -1.96875,2.28375 -3.76625,4.75375 -5.39125,7.3 -7.3325,11.49875 -14.23625,27.93625 -10.67,42.1675 3.295,13.13375 14.72,21.2675 25.21875,27.195 13.595,7.655 28.30125,12.94875 43.3075,16.22125 31.1825,6.79125 63.57625,4.92375 94.6875,-1.3125 26.87375,-5.38625 59.56875,-13.505 72.54875,-42.87625 6.0775,-13.7825 5.26375,-29.09375 -2.19625,-42.07375" />
      <path
         inkscape:connector-curvature="0"
         id="path218"
         style="fill:#271a19;fill-opacity:1;fill-rule:nonzero;stroke:none"
         d="m 290.57155,554.15152 c -0.99875,-0.0925 -2.35375,-1.1275 -2.91,-2.0375 -1.8975,-3.1025 -1.455,-9.80125 -0.84125,-12.11625 0.85625,-3.25625 4.52125,-6.3125 6.36125,-2.19125 1.27,2.82375 1.78375,16.76125 -2.61,16.345 z m 4.165,-18.95375 c -1.22625,-2.00625 -2.88125,-2.7775 -4.4925,-2.5775 -1.5975,0.17 -3.1525,1.29625 -4.2225,3.0875 -1.655,2.79375 -2.12625,6.38875 -2.06875,9.64625 0.0712,4.3675 2.14,14.415 8.145,11.08125 4.2225,-2.34625 4.83625,-9.46125 4.53625,-13.92125 -0.1575,-2.47 -0.59875,-5.2325 -1.8975,-7.31625" />
      <path
         inkscape:connector-curvature="0"
         id="path220"
         style="fill:#271a19;fill-opacity:1;fill-rule:nonzero;stroke:none"
         d="m 270.1303,574.66402 c -6.46125,-2.47 -16.875,-3.875 -22.2375,1.65125 -2.1825,-3.72 -3.18125,-8.5975 -3.43875,-13.15 8.77375,1.8825 18.61625,0.67875 27.36,-0.83375 0.64125,4.30625 0.0713,8.73625 -1.68375,12.3325 z m -11.34,7.7475 c -4.165,0.21625 -7.2175,-1.38875 -9.4,-3.9825 5.99125,-3.42625 12.78125,-3.41 19.185,-1.20375 -2.225,2.96375 -5.49125,4.955 -9.785,5.18625 z m 5.60625,-22.27125 c -2.5825,0.30875 -22.0675,-0.21625 -22.23875,1.46625 -0.59875,5.9725 0.79875,12.48625 4.00875,17.19375 2.8675,4.1975 7.175,6.97625 12.80875,6.6975 5.82,-0.2775 10.25625,-3.51875 12.98125,-8.0875 2.91,-4.8925 3.85125,-11.3125 2.41,-17.3325 -0.59875,-2.515 -8.3725,-0.1075 -9.97,0.0625" />
      <path
         inkscape:connector-curvature="0"
         id="path222"
         style="fill:#271a19;fill-opacity:1;fill-rule:nonzero;stroke:none"
         d="m 221.37405,548.33277 c -0.0562,1.09625 -0.085,2.19125 -0.19875,3.27125 -0.0437,0.7875 -0.1575,1.575 -0.3575,2.34625 -0.185,2.06875 -1.6975,3.04125 -2.995,2.51625 -1.8975,-0.75625 -2.11125,-3.24125 -2.51,-5.27875 -0.4,-2.0375 -0.77125,-4.445 -0.685,-6.51375 0.11375,-2.46875 2.15375,-9.1675 5.42,-6.18875 2.0975,1.89875 1.47,7.27 1.32625,9.8475 z m -5.605,-12.73375 c -2.8675,1.8675 -3.7525,6.02 -3.9225,9.35375 -0.215,4.5525 2.0675,18.08875 8.94375,14.03 4.22125,-2.50125 3.78,-11.9 3.5375,-16.16 -0.2575,-4.38375 -4.00875,-10.17125 -8.55875,-7.22375" />
    </g>
  </g>
</svg>
